<?xml version="1.0" encoding="utf-8"?>
<!-- Generator: Adobe Illustrator 16.0.0, SVG Export Plug-In . SVG Version: 6.00 Build 0)  -->
<!DOCTYPE svg PUBLIC "-//W3C//DTD SVG 1.1//EN" "http://www.w3.org/Graphics/SVG/1.1/DTD/svg11.dtd">
<svg version="1.1" id="Layer_1" xmlns="http://www.w3.org/2000/svg" xmlns:xlink="http://www.w3.org/1999/xlink" x="0px" y="0px"
	 width="500px" height="500px" viewBox="0 0 500 500" enable-background="new 0 0 500 500" xml:space="preserve">
<g>
	<g>
		<g>
			<g>
				<defs>
					<path id="SVGID_1_" d="M479.003,0H25.87c-3.622,0-6.558,2.936-6.558,6.557v486.885c0,3.621,2.936,6.558,6.558,6.558h453.133
						c3.621,0,6.558-2.937,6.558-6.558V6.557C485.561,2.936,482.624,0,479.003,0z M379.343,315.904l-0.228,0.138l-70.499,51.185
						v-9.203v-9.787c-187.061-47.896-139.274-203.689-139.274-203.689c16.733,130.713,116.163,142.692,139.274,143.708V273.76
						v-9.201l70.499,51.184l0.228,0.137l-0.021,0.018L379.343,315.904z"/>
				</defs>
				<clipPath id="SVGID_2_">
					<use xlink:href="#SVGID_1_"  overflow="visible"/>
				</clipPath>
				<g clip-path="url(#SVGID_2_)">
					<g>
						<g>
							<defs>
								<path id="SVGID_3_" d="M207.441,171.856c0.734-19.606,20.258-20.001,27.583-20.126l73.507,0.383L314.916,0
									c0-3.621-2.938-6.557-6.557-6.557H25.87c-3.622,0-6.558,2.936-6.558,6.557v344.296c0,3.622,2.936,6.558,6.558,6.558h181.17
									L207.441,171.856z"/>
							</defs>
							<clipPath id="SVGID_4_">
								<use xlink:href="#SVGID_3_"  overflow="visible"/>
							</clipPath>
							<path clip-path="url(#SVGID_4_)" fill="#231F20" d="M268.32,18.045H51.813c-7.48,0-13.545,6.065-13.545,13.546v251.438v4.453
								v28.063c0,0-0.006,1.132-0.006,1.706c0,5.799,4.328,10.894,11.065,13.86c0,0,3.46,1.32,4.816,1.64
								c2.749,0.701,5.719,1.103,8.835,1.103H199.15l70.446,0.532c3.622,0,6.557-2.935,6.557-6.556l-0.189-29.17
								c3.563-2.438,5.903-6.534,5.903-11.18V31.591C281.864,24.11,275.8,18.045,268.32,18.045z M49.499,30.701
								c0-2.269,1.839-4.109,4.109-4.109s4.11,1.841,4.11,4.109v266.214c0,1.95-1.361,3.573-3.182,3.995l-0.928,0.115
								c-2.27,0-4.109-1.84-4.109-4.11V30.701z M50.385,300.948h-0.017l-0.004-0.003C50.371,300.947,50.377,300.948,50.385,300.948z
								 M236.904,323.986H56.081c-4.038,0-7.311-3.272-7.311-7.312c0-4.036,3.273-7.313,7.311-7.313h180.823V323.986
								L236.904,323.986z M266.652,284.368c0,2.526-2.049,4.573-4.574,4.573c-0.02,0-0.037-0.004-0.057-0.006
								c-0.02,0.002-0.035,0.006-0.057,0.006H73.548c-2.587,0-4.684-2.099-4.684-4.686c0-2.588,2.097-4.686,4.684-4.686h183.958
								V45.331H73.86c-2.76,0-4.997-2.237-4.997-4.997s2.236-4.997,4.997-4.997h187.794c0.074,0,0.141,0.018,0.213,0.022
								c0.07-0.004,0.139-0.022,0.211-0.022c2.525,0,4.574,2.047,4.574,4.573V284.368z"/>
						</g>
						<g>
							<g>
								<defs>
									<path id="SVGID_5_" d="M479.003,0H25.87c-3.622,0-6.558,2.936-6.558,6.557v486.885c0,3.621,2.936,6.558,6.558,6.558
										h453.133c3.621,0,6.558-2.937,6.558-6.558V6.557C485.561,2.936,482.624,0,479.003,0z M379.343,315.904l-0.228,0.138
										l-70.499,51.185v-9.203v-9.787c-187.061-47.896-139.274-203.689-139.274-203.689
										c16.733,130.713,116.163,142.692,139.274,143.708V273.76v-9.201l70.499,51.184l0.228,0.137l-0.021,0.018L379.343,315.904z"
										/>
								</defs>
								<clipPath id="SVGID_6_">
									<use xlink:href="#SVGID_5_"  overflow="visible"/>
								</clipPath>
								<g clip-path="url(#SVGID_6_)">
									<g>
										<g>
											<path fill="none" stroke="#231F20" stroke-width="8.1963" stroke-linecap="round" stroke-linejoin="round" d="
												M219.679,460.777v4.099h0.201c0-1.383,0.256-2.725,0.739-4.006"/>
											
												<path fill="none" stroke="#231F20" stroke-width="8.1963" stroke-linecap="round" stroke-linejoin="round" stroke-dasharray="8.2064,16.4127" d="
												M232.704,450.488c2.574-0.936,5.427-1.569,8.453-1.836H449.73c7.479,0,13.545-6.065,13.545-13.545V179.216
												c0-7.48-6.065-13.545-13.545-13.545H233.224c-4.883,0-13.545,8.589-13.545,13.545v251.438v4.454v17.461"/>
										</g>
									</g>
									
										<path fill="none" stroke="#231F20" stroke-width="8.1963" stroke-linecap="round" stroke-linejoin="round" stroke-miterlimit="10" stroke-dasharray="8.1963,16.3925" d="
										M219.781,468.082c0,9.172,10.889,13.396,24.607,13.396h208.24c-2.634-4.143-4.291-10.035-4.291-16.603
										s1.657-12.464,4.291-16.604"/>
									
										<line fill="none" stroke="#231F20" stroke-width="8.1963" stroke-linecap="round" stroke-miterlimit="10" stroke-dasharray="8.1963,16.3925" x1="235.028" y1="177.297" x2="235.028" y2="443.287"/>
									
										<path fill="none" stroke="#231F20" stroke-width="8.1963" stroke-linecap="round" stroke-miterlimit="10" stroke-dasharray="8.1963,16.3925" d="
										M254.223,188.111h182.366c3.621,0,6.559,2.936,6.559,6.557v230.587c0,3.621-2.938,6.56-6.559,6.56H254.223"/>
								</g>
							</g>
						</g>
						<g>
							<defs>
								<path id="SVGID_7_" d="M479.003,0H25.87c-3.622,0-6.558,2.936-6.558,6.557v486.885c0,3.621,2.936,6.558,6.558,6.558h453.133
									c3.621,0,6.558-2.937,6.558-6.558V6.557C485.561,2.936,482.624,0,479.003,0z M379.343,315.904l-0.228,0.138l-70.499,51.185
									v-9.203v-9.787c-187.061-47.896-139.274-203.689-139.274-203.689c16.733,130.713,116.163,142.692,139.274,143.708V273.76
									v-9.201l70.499,51.184l0.228,0.137l-0.021,0.018L379.343,315.904z"/>
							</defs>
							<clipPath id="SVGID_8_">
								<use xlink:href="#SVGID_7_"  overflow="visible"/>
							</clipPath>
							<g clip-path="url(#SVGID_8_)">
								<path fill="#231F20" d="M169.342,144.543c16.733,130.713,116.163,142.691,139.274,143.708v-14.494v-9.2l70.499,51.183
									l0.228,0.137l-0.021,0.011l0.021,0.014l-0.228,0.138l-70.499,51.185v-9.203v-9.787
									C121.555,300.339,169.342,144.543,169.342,144.543 M169.336,134.542c-4.356,0-8.258,2.84-9.555,7.068
									c-0.208,0.68-5.114,16.918-5.819,40.548c-0.936,31.326,6.02,61.163,20.114,86.285c23.23,41.408,65.106,70.808,124.54,87.462
									v2.114v9.203c0,3.76,2.108,7.202,5.459,8.909c1.433,0.73,2.989,1.091,4.54,1.091c2.073,0,4.135-0.644,5.876-1.908
									l70.174-50.948c2.843-1.787,4.602-4.884,4.676-8.248c0.026-1.239-0.177-2.453-0.583-3.587
									c-0.74-2.093-2.167-3.913-4.103-5.127l-70.164-50.939c-1.74-1.264-3.803-1.908-5.876-1.908c-1.551,0-3.107,0.36-4.541,1.091
									c-3.35,1.707-5.458,5.149-5.458,8.909v9.2v3.603c-34.036-4.309-105.562-26.337-119.355-134.086
									c-0.598-4.672-4.375-8.293-9.068-8.694C169.905,134.555,169.62,134.542,169.336,134.542L169.336,134.542z"/>
							</g>
						</g>
					</g>
				</g>
			</g>
		</g>
	</g>
</g>
</svg>
