<?xml version="1.0" encoding="utf-8"?>
<!-- Generator: Adobe Illustrator 16.0.0, SVG Export Plug-In . SVG Version: 6.00 Build 0)  -->
<!DOCTYPE svg PUBLIC "-//W3C//DTD SVG 1.1//EN" "http://www.w3.org/Graphics/SVG/1.1/DTD/svg11.dtd">
<svg version="1.1" id="Layer_1" xmlns="http://www.w3.org/2000/svg" xmlns:xlink="http://www.w3.org/1999/xlink" x="0px" y="0px"
	 width="500px" height="500px" viewBox="0 0 500 500" enable-background="new 0 0 500 500" xml:space="preserve">
<g>
	<g>
		
			<path fill="#231F20" stroke="#231F20" stroke-width="3.3045" stroke-linecap="round" stroke-linejoin="round" stroke-miterlimit="10" d="
			M316.051,398.581c0.313-2.139,0.693-4.207,1.146-6.175l-55.15,6.175H316.051z"/>
		
			<path fill="#231F20" stroke="#231F20" stroke-width="3.3045" stroke-linecap="round" stroke-linejoin="round" stroke-miterlimit="10" d="
			M446.107,371.276c2.156,1.769,4.697,3.343,7.589,4.651l-0.034-10.301c3.167-3.09,5.248-8.282,5.248-14.17V39.765
			c0.001-9.484-5.389-17.171-12.037-17.171l-192.43,25.353c-3.74,0-7.082,2.433-9.289,6.25c0,0,0.093,1.358,0.265,3.904
			c0.146,2.547,0.415,6.281,0.649,11.035c0.247,4.753,0.576,10.524,0.845,17.146c0.291,6.621,0.624,14.089,0.903,22.239
			c0.576,16.297,1.08,35.312,1.417,55.682c0.074,5.094,0.149,10.271,0.226,15.512c0.068,5.242,0.135,10.549,0.163,15.896
			c0.104,10.693,0.118,21.56,0.143,32.424c-0.024,10.866-0.031,21.73-0.136,32.423c-0.031,5.346-0.087,10.651-0.161,15.895
			c-0.073,5.24-0.148,10.419-0.221,15.512c-0.338,20.372-0.84,39.386-1.419,55.682c-0.282,8.146-0.612,15.619-0.907,22.24
			c-0.267,6.619-0.597,12.392-0.848,17.145c-0.234,4.754-0.505,8.486-0.651,11.036c-0.174,2.545-0.266,3.903-0.266,3.903
			s-0.093-1.357-0.267-3.903c-0.147-2.55-0.417-6.282-0.651-11.036c-0.251-4.753-0.579-10.525-0.848-17.145
			c-0.296-6.621-0.628-14.092-0.908-22.24c-0.577-16.299-1.082-35.311-1.418-55.682c-0.073-5.093-0.147-10.271-0.224-15.512
			c-0.075-5.243-0.129-10.549-0.16-15.895c-0.104-10.694-0.111-21.559-0.136-32.423c0.025-10.866,0.04-21.731,0.145-32.424
			c0.03-5.347,0.094-10.653,0.164-15.896c0.076-5.24,0.151-10.418,0.227-15.512c0.336-20.371,0.842-39.385,1.416-55.682
			c0.279-8.148,0.611-15.618,0.903-22.239c0.266-6.621,0.597-12.393,0.844-17.146c0.234-4.753,0.502-8.49,0.648-11.035
			c0.169-2.545,0.263-3.904,0.263-3.904c-2.208-3.818-5.551-6.25-9.29-6.25L43.437,22.594c-6.647,0-12.038,7.687-12.038,17.171
			v311.692c0,5.889,2.081,11.08,5.247,14.17l-0.171,49.65c0,4.592,2.607,8.311,5.827,8.311l62.61-0.679h121.025
			c2.771,0,5.41-0.507,7.854-1.395c1.205-0.404,4.281-2.075,4.281-2.075c2.95-1.854,5.375-4.363,7.081-7.31
			c1.706,2.944,4.131,5.454,7.082,7.31c0,0,3.075,1.671,4.277,2.075c2.442,0.888,5.085,1.395,7.854,1.395h50.328
			c-0.042-3.99,0.016-8.241,0.237-12.502h-56.692c-3.591,0-6.499-4.148-6.499-9.268c0-5.118,2.908-9.267,6.499-9.267l61.881-8.234
			c2.136-4.431,5.055-7.413,9.023-7.953c20.256-2.758,37.393,4.275,37.393-13.658c0-2.854,0.136-5.543,0.49-8.057l-105.527,15.365
			c-7.927,1.153-8.923,11.193-8.923,11.193l0.006-9.832c0,0,0-277.728,0-285.249c0-7.52,8.761-11.92,8.761-11.92
			S420.71,48.635,432.261,47.605c11.552-1.029,9.993,17.178,9.993,17.178s0.457,243.906,0.457,259.352
			c0,11.704-5.041,17.201-7.485,19.18c1.898,3.731,2.542,7.959,2.499,12.169c-0.039,4.109,1.54,8.24,4.507,11.91L446.107,371.276z
			 M253.175,381.203h-0.015l-0.005-0.005C253.165,381.202,253.169,381.203,253.175,381.203z M232.069,410.407H49.834
			c2.684-1.433,4.6-5.113,4.6-9.438c0-0.475-0.152-1.308-0.416-2.388h174.247L47.13,378.302c-2.381-6.07-4.66-11.129-5.618-11.78
			l190.556,25.349c3.59,0,6.499,4.151,6.499,9.269C238.567,406.259,235.659,410.407,232.069,410.407z M237.133,381.203
			c0.008,0,0.013-0.001,0.02-0.005l-0.004,0.005H237.133z M230.577,365.333L58.664,340.302c0,0-8.762-4.633-8.762-20.036
			c0-15.399,0.455-258.58,0.455-258.58s-1.556-18.152,9.962-17.127c11.519,1.028,170.413,25.846,170.413,25.846
			s8.732,4.388,8.732,11.885c0,7.498,0,284.401,0,284.401l0.005,9.803C239.471,376.494,238.48,366.482,230.577,365.333z"/>
	</g>
	<polygon fill="#231F20" points="472.605,390.943 426.565,390.943 426.565,344.905 379.859,344.905 379.859,390.943 
		333.821,390.943 333.821,437.647 379.859,437.647 379.859,483.688 426.565,483.688 426.565,437.647 472.605,437.647 	"/>
	
		<path fill="#231F20" stroke="#231F20" stroke-width="3.3045" stroke-linecap="round" stroke-linejoin="round" stroke-miterlimit="10" d="
		M218.833,228.009c0,4.025-2.288,7.287-5.11,7.287c-0.444,0-0.874-0.089-1.285-0.242l-12.947-2.439
		c-6.783,4.817-13.875,10.347-21.503,16.355l36.521,6.293l-0.005,0.095c2.45,0.536,4.329,3.547,4.329,7.19
		c0,4.026-2.288,7.287-5.11,7.287c-0.444,0-0.874-0.087-1.285-0.24l-49.175-9.051c-0.241,0.188-0.479,0.374-0.721,0.561
		c-7.961,6.188-16.437,11.654-25.08,16.48l77.046,13.492l-0.005,0.094c2.45,0.536,4.329,3.547,4.329,7.192
		c0,4.023-2.288,7.286-5.11,7.286c-0.444,0-0.874-0.09-1.285-0.244l-95.346-17.663c-24.203,10.77-47.631,17.017-62.879,20.339
		c1.688,5.151,5.814,10.865,15.627,12.864c19.369,3.946,156.796,24.993,156.796,24.993V217.235
		c-3.382,1.279-6.761,2.84-10.172,4.661C217.88,223.188,218.833,225.431,218.833,228.009z"/>
	
		<path fill="#231F20" stroke="#231F20" stroke-width="3.3045" stroke-linecap="round" stroke-linejoin="round" stroke-miterlimit="10" d="
		M437.366,302.434c0,0,0.075-1.937,0.167-5.034c-15.524,0.854-32.941-2.251-50.351-8.344l-109.019,20.197
		c-0.412,0.152-0.842,0.242-1.284,0.242c-2.822,0-5.11-3.261-5.11-7.285c0-3.645,1.878-6.655,4.329-7.192l-0.005-0.094
		l88.427-15.483c-9.662-4.83-19.05-10.48-27.817-16.771l-58.537,10.771c-0.411,0.154-0.841,0.242-1.286,0.242
		c-2.822,0-5.108-3.261-5.108-7.285c0-3.646,1.878-6.655,4.328-7.191l-0.005-0.095l46.111-7.947
		c-5.535-4.865-10.681-9.991-15.302-15.322c-0.601-0.694-1.181-1.343-1.771-2.02l-26.968,5.079c-0.41,0.152-0.841,0.241-1.285,0.241
		c-2.822,0-5.108-3.26-5.108-7.287c0-3.644,1.878-6.654,4.328-7.191l-0.006-0.095l17.717-3.072
		c-11.737-12.12-21.501-19.979-29.842-24.458v152.751c0,0,137.425-21.048,156.794-24.993
		C440.13,320.849,437.366,302.434,437.366,302.434z"/>
	<g>
		
			<line fill="none" stroke="#231F20" stroke-width="8.8119" stroke-linecap="round" stroke-linejoin="round" stroke-miterlimit="10" x1="69.793" y1="69.226" x2="218.287" y2="102.112"/>
	</g>
	<g>
		
			<line fill="none" stroke="#231F20" stroke-width="8.8119" stroke-linecap="round" stroke-linejoin="round" stroke-miterlimit="10" x1="69.793" y1="104.526" x2="218.287" y2="137.411"/>
	</g>
	<g>
		
			<line fill="none" stroke="#231F20" stroke-width="8.8119" stroke-linecap="round" stroke-linejoin="round" stroke-miterlimit="10" x1="69.793" y1="139.823" x2="218.287" y2="172.709"/>
	</g>
	<g>
		
			<line fill="none" stroke="#231F20" stroke-width="8.8119" stroke-linecap="round" stroke-linejoin="round" stroke-miterlimit="10" x1="69.793" y1="176.179" x2="208.142" y2="207.646"/>
	</g>
	<g>
		
			<line fill="none" stroke="#231F20" stroke-width="8.8119" stroke-linecap="round" stroke-linejoin="round" stroke-miterlimit="10" x1="418.041" y1="69.226" x2="267.701" y2="102.112"/>
	</g>
	<g>
		
			<line fill="none" stroke="#231F20" stroke-width="8.8119" stroke-linecap="round" stroke-linejoin="round" stroke-miterlimit="10" x1="418.041" y1="104.526" x2="267.701" y2="137.411"/>
	</g>
	<g>
		
			<line fill="none" stroke="#231F20" stroke-width="8.8119" stroke-linecap="round" stroke-linejoin="round" stroke-miterlimit="10" x1="418.041" y1="139.823" x2="267.701" y2="172.709"/>
	</g>
	<g>
		
			<line fill="none" stroke="#231F20" stroke-width="8.8119" stroke-linecap="round" stroke-linejoin="round" stroke-miterlimit="10" x1="418.041" y1="176.179" x2="293.69" y2="202.492"/>
	</g>
</g>
</svg>
