<?xml version="1.0" encoding="utf-8"?>
<!-- Generator: Adobe Illustrator 16.0.0, SVG Export Plug-In . SVG Version: 6.00 Build 0)  -->
<!DOCTYPE svg PUBLIC "-//W3C//DTD SVG 1.1//EN" "http://www.w3.org/Graphics/SVG/1.1/DTD/svg11.dtd">
<svg version="1.1" id="Layer_1" xmlns="http://www.w3.org/2000/svg" xmlns:xlink="http://www.w3.org/1999/xlink" x="0px" y="0px"
	 width="500px" height="500px" viewBox="0 0 500 500" enable-background="new 0 0 500 500" xml:space="preserve">
<g>
	<g>
		<g>
			<g>
				<path fill="#FFFFFF" d="M416.814,17.004H262.209c-5.341,0-9.672,4.33-9.672,9.672v179.545v3.182v20.037
					c0,0-0.003,0.81-0.003,1.219c0,4.142,3.091,7.779,7.903,9.9c0,0,2.47,0.941,3.438,1.168c1.963,0.5,4.082,0.785,6.311,0.785
					h97.237l50.302,0.382c2.592,0,4.684-2.097,4.684-4.681l-0.135-20.832c2.544-1.74,4.214-4.664,4.214-7.979V26.676
					C426.485,21.334,422.15,17.004,416.814,17.004z M277.954,36.486c-1.972,0-3.567-1.595-3.567-3.566
					c0-1.971,1.596-3.567,3.567-3.567h134.098c0.054,0,0.1,0.012,0.15,0.015c0.052-0.001,0.104-0.015,0.153-0.015
					c1.804,0,3.269,1.461,3.269,3.265V207.18c0,1.803-1.463,3.264-3.269,3.264c-0.016,0-0.031-0.001-0.037-0.003
					c-0.016,0.001-0.03,0.003-0.038,0.003H277.73c-1.846,0-3.344-1.495-3.344-3.343c0-1.85,1.498-3.345,3.344-3.345h131.36V36.486
					H277.954z M260.559,26.041c0-1.621,1.313-2.934,2.933-2.934c1.622,0,2.936,1.313,2.936,2.934v190.096
					c0,1.395-0.971,2.553-2.272,2.854l-0.662,0.081c-1.619,0-2.932-1.312-2.932-2.934V26.041H260.559z M261.191,219.018h-0.014
					l-0.002-0.001C261.18,219.018,261.188,219.018,261.191,219.018z M265.258,235.471c-2.884,0-5.22-2.338-5.22-5.222
					s2.336-5.221,5.22-5.221h145.958c-1.914,0.914-3.237,2.862-3.237,5.125c0,2.436,1.533,4.509,3.693,5.317H265.258V235.471z"/>
			</g>
		</g>
	</g>
	<g>
		<g>
			<g>
				<path fill="#FFFFFF" d="M232.938,17.004H78.336c-5.343,0-9.673,4.33-9.673,9.672v179.545v3.182v20.037
					c0,0-0.004,0.81-0.004,1.219c0,4.142,3.092,7.779,7.903,9.9c0,0,2.469,0.941,3.438,1.168c1.963,0.5,4.083,0.785,6.31,0.785
					h97.235l50.305,0.382c2.586,0,4.68-2.097,4.68-4.681l-0.136-20.832c2.544-1.74,4.215-4.664,4.215-7.979V26.676
					C242.608,21.334,238.28,17.004,232.938,17.004z M94.081,36.486c-1.974,0-3.57-1.595-3.57-3.566c0-1.971,1.597-3.567,3.57-3.567
					h134.097c0.05,0,0.099,0.012,0.15,0.015c0.049-0.001,0.098-0.015,0.151-0.015c1.805,0,3.269,1.461,3.269,3.265V207.18
					c0,1.803-1.464,3.264-3.269,3.264c-0.015,0-0.026-0.001-0.039-0.003c-0.013,0.001-0.025,0.003-0.04,0.003H93.856
					c-1.848,0-3.344-1.495-3.344-3.343c0-1.85,1.497-3.345,3.344-3.345h131.358V36.486H94.081z M76.683,26.041
					c0-1.621,1.313-2.934,2.934-2.934c1.621,0,2.935,1.313,2.935,2.934v190.096c0,1.395-0.971,2.553-2.272,2.854l-0.663,0.081
					c-1.621,0-2.934-1.312-2.934-2.934V26.041z M77.318,219.018h-0.017l-0.001-0.001C77.305,219.018,77.311,219.018,77.318,219.018z
					 M81.385,235.471c-2.886,0-5.222-2.338-5.222-5.222s2.336-5.221,5.222-5.221h145.957c-1.912,0.914-3.24,2.862-3.24,5.125
					c0,2.436,1.537,4.509,3.693,5.317H81.385V235.471z"/>
			</g>
		</g>
	</g>
	<g>
		<g>
			<g>
				<path fill="#FFFFFF" d="M232.938,254.223H78.336c-5.343,0-9.673,4.332-9.673,9.676V443.44v3.182v20.04
					c0,0-0.004,0.807-0.004,1.217c0,4.141,3.092,7.777,7.903,9.898c0,0,2.469,0.944,3.438,1.17c1.963,0.502,4.083,0.784,6.31,0.784
					h97.235l50.305,0.383c2.586,0,4.68-2.095,4.68-4.683l-0.136-20.83c2.544-1.737,4.215-4.665,4.215-7.98V263.898
					C242.608,258.557,238.28,254.223,232.938,254.223z M94.081,273.708c-1.974,0-3.57-1.597-3.57-3.569
					c0-1.97,1.597-3.565,3.57-3.565h134.097c0.05,0,0.099,0.011,0.15,0.014c0.049-0.002,0.098-0.014,0.151-0.014
					c1.805,0,3.269,1.46,3.269,3.266v174.558c0,1.807-1.464,3.267-3.269,3.267c-0.015,0-0.026-0.003-0.039-0.003
					s-0.025,0.003-0.04,0.003H93.856c-1.848,0-3.344-1.494-3.344-3.341c0-1.848,1.497-3.347,3.344-3.347h131.358V273.709
					L94.081,273.708L94.081,273.708z M76.683,263.26c0-1.617,1.313-2.933,2.934-2.933c1.621,0,2.935,1.313,2.935,2.933V453.36
					c0,1.39-0.971,2.548-2.272,2.85l-0.663,0.083c-1.621,0-2.934-1.313-2.934-2.933V263.26z M77.318,456.238h-0.017l-0.001-0.003
					C77.305,456.238,77.311,456.238,77.318,456.238z M81.385,472.688c-2.886,0-5.222-2.337-5.222-5.219
					c0-2.881,2.336-5.221,5.222-5.221h145.957c-1.912,0.916-3.24,2.864-3.24,5.126c0,2.438,1.537,4.51,3.693,5.315H81.385V472.688z"
					/>
			</g>
		</g>
	</g>
	<g>
		<g>
			<g>
				<path fill="#FFFFFF" d="M416.814,254.223H262.209c-5.341,0-9.672,4.332-9.672,9.676V443.44v3.182v20.04
					c0,0-0.003,0.807-0.003,1.217c0,4.141,3.091,7.777,7.903,9.898c0,0,2.47,0.944,3.438,1.17c1.963,0.502,4.082,0.784,6.311,0.784
					h97.237l50.302,0.383c2.592,0,4.684-2.095,4.684-4.683l-0.135-20.83c2.544-1.737,4.214-4.665,4.214-7.98V263.898
					C426.485,258.557,422.15,254.223,416.814,254.223z M277.954,273.708c-1.972,0-3.567-1.597-3.567-3.569
					c0-1.97,1.596-3.565,3.567-3.565h134.098c0.054,0,0.1,0.011,0.15,0.014c0.052-0.002,0.104-0.014,0.153-0.014
					c1.804,0,3.269,1.46,3.269,3.266v174.558c0,1.807-1.463,3.267-3.269,3.267c-0.016,0-0.031-0.003-0.037-0.003
					c-0.016,0-0.03,0.003-0.038,0.003H277.73c-1.846,0-3.344-1.494-3.344-3.341c0-1.848,1.498-3.347,3.344-3.347h131.36V273.709
					L277.954,273.708L277.954,273.708z M260.559,263.26c0-1.617,1.313-2.933,2.933-2.933c1.622,0,2.936,1.313,2.936,2.933V453.36
					c0,1.39-0.971,2.548-2.272,2.85l-0.662,0.083c-1.619,0-2.932-1.313-2.932-2.933V263.26H260.559z M261.191,456.238h-0.014
					l-0.002-0.003C261.18,456.238,261.188,456.238,261.191,456.238z M265.258,472.688c-2.884,0-5.22-2.337-5.22-5.219
					c0-2.881,2.336-5.221,5.22-5.221h145.958c-1.914,0.916-3.237,2.864-3.237,5.126c0,2.438,1.533,4.51,3.693,5.315H265.258V472.688
					z"/>
			</g>
		</g>
	</g>
</g>
</svg>
