<?xml version="1.0" encoding="utf-8"?>
<!-- Generator: Adobe Illustrator 16.0.0, SVG Export Plug-In . SVG Version: 6.00 Build 0)  -->
<!DOCTYPE svg PUBLIC "-//W3C//DTD SVG 1.1//EN" "http://www.w3.org/Graphics/SVG/1.1/DTD/svg11.dtd">
<svg version="1.1" id="Layer_1" xmlns="http://www.w3.org/2000/svg" xmlns:xlink="http://www.w3.org/1999/xlink" x="0px" y="0px"
	 width="500px" height="500px" viewBox="0 0 500 500" enable-background="new 0 0 500 500" xml:space="preserve">
<g>
	<path fill="#FFFFFF" d="M236.207,381.508c1.508-3.85,11.271-7.706,12.965-11.548H69.563c-4.702,0-8.513-3.808-8.513-8.512
		c0-4.701,3.811-8.515,8.513-8.515h175.115c-2.797-7.524-4.676-15.495-5.492-23.78H89.9c-3.012,0-5.454-2.442-5.454-5.454
		c0-3.014,2.441-5.457,5.454-5.457h148.851c0.618-41.573,27.802-76.688,65.343-89.141V45.507H90.264
		c-3.214,0-5.818-2.604-5.818-5.818c0-3.214,2.604-5.818,5.818-5.818h218.659c0.085,0,0.163,0.021,0.248,0.025
		c0.08-0.005,0.162-0.025,0.245-0.025c2.939,0,5.326,2.383,5.326,5.324v187.026c5.732-1.185,11.657-1.832,17.714-1.937V29.51
		c-0.002-8.711-7.063-15.772-15.771-15.772H64.593c-8.709,0-15.771,7.062-15.771,15.772v292.762v5.182v32.676
		c0,0-0.007,1.318-0.007,1.983c0,6.755,5.039,12.687,12.883,16.14c0,0,4.029,1.537,5.607,1.907
		c3.201,0.816,6.659,1.286,10.287,1.286h158.552L236.207,381.508z M62.911,343.137l-0.004-0.004
		c0.008,0.002,0.015,0.004,0.024,0.004H62.911z M61.898,28.473c0-2.642,2.141-4.784,4.784-4.784s4.786,2.143,4.786,4.784v309.965
		c0,2.271-1.585,4.162-3.705,4.653l-1.081,0.131c-2.643,0-4.784-2.143-4.784-4.784V28.473z"/>
	<path fill="#FFFFFF" d="M331.533,428.717h28.104v-28.102h42.009v28.102h28.103v24.214c7.029-2.685,13.026-5.904,17.281-9.771
		c0,0-10.643-42.375-69.785-56.861c21.814-14.141,36.26-38.684,36.26-66.616c0-43.823-35.525-79.349-79.349-79.349
		s-79.349,35.525-79.349,79.349c0,27.933,14.445,52.476,36.26,66.616c-59.144,14.484-69.785,56.861-69.785,56.861
		c22.805,20.731,95.539,22.912,110.252,23.142V428.717z"/>
	<polygon fill="#FFFFFF" points="367.551,490.915 367.551,462.813 339.447,462.813 339.447,436.631 367.551,436.631 
		367.551,408.529 393.731,408.529 393.731,436.631 421.834,436.631 421.834,462.813 393.731,462.813 393.731,490.915 	"/>
</g>
</svg>
