<?xml version="1.0" encoding="utf-8"?>
<!-- Generator: Adobe Illustrator 16.0.0, SVG Export Plug-In . SVG Version: 6.00 Build 0)  -->
<!DOCTYPE svg PUBLIC "-//W3C//DTD SVG 1.1//EN" "http://www.w3.org/Graphics/SVG/1.1/DTD/svg11.dtd">
<svg version="1.1" id="Layer_1" xmlns="http://www.w3.org/2000/svg" xmlns:xlink="http://www.w3.org/1999/xlink" x="0px" y="0px"
	 width="500px" height="500px" viewBox="0 0 500 500" enable-background="new 0 0 500 500" xml:space="preserve">
<g>
	<path fill="#FFFFFF" d="M323.303,344.454h-66.064c-5.612,0-10.247,4.118-11.083,9.495H86.629c-5.381,0-9.745-4.361-9.745-9.743
		V106.871c0-5.382,4.363-9.744,9.745-9.744h159.526c0.835,5.377,5.471,9.498,11.083,9.498h66.064c6.203,0,11.23-5.028,11.23-11.231
		c0-6.203-5.027-11.23-11.23-11.23h-5.946V35.672c0-8.611-6.979-15.591-15.591-15.591H15.843c-8.611,0-15.591,6.98-15.591,15.591
		v379.733c0,8.61,6.98,15.59,15.591,15.59h285.923c8.611,0,15.591-6.979,15.591-15.59v-48.49h5.946c6.203,0,11.23-5.027,11.23-11.23
		S329.506,344.454,323.303,344.454z"/>
	<path fill="#FFFFFF" d="M327.965,298.539c0,5.838-4.731,10.57-10.568,10.57h-60.781c-5.837,0-10.569-4.732-10.569-10.57l0,0
		c0-5.837,4.732-10.569,10.569-10.569h60.781C323.233,287.97,327.965,292.702,327.965,298.539L327.965,298.539z"/>
	<path fill="#FFFFFF" d="M297.577,466.341c0,5.839-4.732,10.571-10.571,10.571l0,0c-5.838,0-10.57-4.732-10.57-10.571V309.109
		c0-5.838,4.732-10.57,10.57-10.57l0,0c5.839,0,10.571,4.732,10.571,10.57V466.341z"/>
	<path fill="#FFFFFF" d="M366.282,459.392c0,3.648-2.956,6.606-6.605,6.606h-145.34c-3.648,0-6.606-2.958-6.606-6.606l0,0
		c0-3.648,2.958-6.606,6.606-6.606h145.34C363.326,452.785,366.282,455.743,366.282,459.392L366.282,459.392z"/>
	<g>
		<path fill="#FFFFFF" d="M371.904,459.392c0,7.536-6.109,13.646-13.646,13.646l0,0c-7.537,0-13.646-6.109-13.646-13.646l0,0
			c0-7.536,6.108-13.645,13.646-13.645l0,0C365.795,445.747,371.904,451.855,371.904,459.392L371.904,459.392z"/>
		<path fill="#FFFFFF" d="M229.4,459.392c0,7.536-6.11,13.646-13.646,13.646l0,0c-7.538,0-13.646-6.109-13.646-13.646l0,0
			c0-7.536,6.108-13.645,13.646-13.645l0,0C223.29,445.747,229.4,451.855,229.4,459.392L229.4,459.392z"/>
	</g>
	<g>
		<path fill="#FFFFFF" d="M226.213,155.358c-7.049,0-12.762-5.433-12.762-12.136v-7.559c0-6.702,5.713-12.135,12.762-12.135h248.862
			c-1.396-5.265-6.391-9.165-12.359-9.165H216.003c-7.048,0-12.761,5.432-12.761,12.135v25.889c0,6.703,5.713,12.136,12.761,12.136
			h246.712c5.969,0,10.965-3.902,12.359-9.166H226.213z"/>
		<path fill="#FFFFFF" d="M223.32,161.617c-8.61,0-15.589-5.433-15.589-12.135v-22.983c0-6.702,6.979-12.135,15.589-12.135h-90.756
			c-8.611,0-15.591,5.433-15.591,12.135v25.889c0,6.703,6.98,12.136,15.591,12.136h102.9c3.86,0,7.386-1.098,10.108-2.907H223.32z"
			/>
	</g>
	<g>
		<path fill="#FFFFFF" d="M248.161,213.611c3.892,0,7.046-5.433,7.046-12.137v-7.558c0-6.702-3.154-12.137-7.046-12.137H110.738
			c0.771-5.263,3.529-9.163,6.825-9.163H253.8c3.89,0,7.045,5.433,7.045,12.136v25.889c0,6.703-3.155,12.136-7.045,12.136H117.563
			c-3.295,0-6.056-3.904-6.825-9.166H248.161z"/>
		<path fill="#FFFFFF" d="M485.961,172.616H242.136c8.611,0,15.592,6.98,15.592,15.591v18.979c0,8.611-6.981,15.591-15.592,15.591
			h243.825c8.609,0,15.591-6.98,15.591-15.591v-18.979C501.552,179.596,494.57,172.616,485.961,172.616z"/>
	</g>
	<g>
		<path fill="#FFFFFF" d="M178.43,271.865c-7.694,0-13.931-5.434-13.931-12.139v-7.557c0-6.703,6.237-12.137,13.931-12.137h271.701
			c-1.523-5.263-6.979-9.164-13.493-9.164H167.285c-7.694,0-13.932,5.432-13.932,12.135v25.89c0,6.701,6.238,12.135,13.932,12.135
			h269.353c6.515,0,11.97-3.901,13.493-9.164H178.43z"/>
		<path fill="#FFFFFF" d="M176.273,279.329h-1.263c-8.181,0-14.813-6.981-14.813-15.591v-12.331c0-8.611,6.631-15.592,14.813-15.592
			h1.263c3.177,0,6.112,1.062,8.525,2.854c-2.562-4.658-7.336-7.8-12.818-7.8h-23.564c-8.181,0-14.813,6.979-14.813,15.591v18.979
			c0,8.61,6.632,15.591,14.813,15.591h23.564c2.644,0,5.122-0.738,7.271-2.016C178.289,279.219,177.293,279.329,176.273,279.329z"/>
		<path fill="#FFFFFF" d="M398.463,261.353c-0.411-3.329-3.901-5.929-8.15-5.929h-15.839c-4.248,0-7.739,2.6-8.15,5.929h-0.041
			v0.658v1.757v42.865l16.111-12.954l16.113,12.955v-42.866v-1.757v-0.658H398.463z"/>
	</g>
</g>
</svg>
